# xmcd
#
# Track frame offsets:
#	150
#	16848
#	34631
#	53174
#	67969
#	86247
#	101906
#	116290
#	133858
#	156478
#	173129
#	197119
#	212639
#	229057
#	243272
#	264717
#	284008
#	302555
#
# Disc length: 4342 seconds
#
# Revision: 1
# Processed by: cddbd v1.4PL0 Copyright (c) Steve Scherf et al.
# Submitted via: CDmax 2.0
#
DISCID=0210f412
DTITLE=Flying Steps - B-Town
DYEAR=2001
DGENRE=New Age
TTITLE0=Breakin' It Down (Radio Version)
TTITLE1=We Gonna Rock It (Drop-Out Short Cut)
TTITLE2=B-Unitor I (Dj Mesia Mix)
TTITLE3=In Da Arena (Video Show Cut)
TTITLE4=King Of Rock (Zip Mix)
TTITLE5=We Are Electric (Radio Mix)
TTITLE6=B-Unitor II (Dj Mesia Mix)
TTITLE7=Body Rockin (Crashi Cut)
TTITLE8=The Wizard (Jetset Remix)
TTITLE9=Elektrik (Sonixtended)
TTITLE10=Kings Of 808 (Drop-Out-Cut)
TTITLE11=B-Town Power (Bassheadz Edit)
TTITLE12=We Are Robotic (Radio Mix)
TTITLE13=Too Hot (Beatmix)
TTITLE14=In Da Arena (Bassheadz Remix)
TTITLE15=We Gonna Rock It (Jetset Remix)
TTITLE16=We Are Electric (Bassheadz Remix)
TTITLE17=Breakin' It Down (HVZ Remix :)
EXTD=YEAR: 2001
EXTT0=
EXTT1=
EXTT2=
EXTT3=
EXTT4=
EXTT5=
EXTT6=
EXTT7=
EXTT8=
EXTT9=
EXTT10=
EXTT11=
EXTT12=
EXTT13=
EXTT14=
EXTT15=
EXTT16=
EXTT17=
PLAYORDER=
